<mxfile host="app.diagrams.net" modified="2020-09-29T07:21:09.246Z" agent="5.0 (Windows NT 10.0; Win64; x64) AppleWebKit/537.36 (KHTML, like Gecko) Chrome/85.0.4183.121 Safari/537.36" etag="TC5w3Brq9h1gXJXZn8Tn" version="13.3.9" type="github">
  <diagram id="peSgpNI3BcgGdvSU9K40" name="Page-1">
    <mxGraphModel dx="1476" dy="908" grid="1" gridSize="10" guides="1" tooltips="1" connect="1" arrows="1" fold="1" page="1" pageScale="1" pageWidth="1169" pageHeight="827" math="0" shadow="0">
      <root>
        <mxCell id="0" />
        <mxCell id="1" parent="0" />
        <mxCell id="ZOe7THteKk9-Ha0sNbh8-1" value="SegmentDataContainer of&amp;nbsp; &amp;nbsp;.osrm.geometry" style="text;html=1;strokeColor=none;fillColor=none;align=left;verticalAlign=middle;whiteSpace=wrap;rounded=0;fontSize=16;fontStyle=1" parent="1" vertex="1">
          <mxGeometry x="39" y="10" width="381" height="20" as="geometry" />
        </mxCell>
        <mxCell id="BeEXMxbR4Cep0VXV6dGn-11" value="&lt;font style=&quot;font-size: 14px&quot;&gt;&lt;b&gt;Source&lt;/b&gt;&lt;/font&gt;" style="rounded=0;whiteSpace=wrap;html=1;" parent="1" vertex="1">
          <mxGeometry x="323.75" y="180" width="148.75" height="40" as="geometry" />
        </mxCell>
        <mxCell id="jt9bvCTmd64Q98_ZrKiH-1" value="&lt;b&gt;nodes&lt;br&gt;(Internal NodeID)&lt;/b&gt;&lt;b&gt;&lt;br&gt;&lt;/b&gt;" style="text;html=1;strokeColor=none;fillColor=none;align=center;verticalAlign=middle;whiteSpace=wrap;rounded=0;fontSize=14;" parent="1" vertex="1">
          <mxGeometry x="202.5" y="183.75" width="116.5" height="32.5" as="geometry" />
        </mxCell>
        <mxCell id="jt9bvCTmd64Q98_ZrKiH-6" value="&lt;b&gt;forward_weights&lt;br&gt;&lt;/b&gt;" style="text;html=1;strokeColor=none;fillColor=none;align=center;verticalAlign=middle;whiteSpace=wrap;rounded=0;fontSize=14;" parent="1" vertex="1">
          <mxGeometry x="202.5" y="223.75" width="116.5" height="32.5" as="geometry" />
        </mxCell>
        <mxCell id="jt9bvCTmd64Q98_ZrKiH-11" value="&lt;b&gt;reverse_weights&lt;br&gt;&lt;/b&gt;" style="text;html=1;strokeColor=none;fillColor=none;align=center;verticalAlign=middle;whiteSpace=wrap;rounded=0;fontSize=14;" parent="1" vertex="1">
          <mxGeometry x="202.5" y="263.75" width="116.5" height="32.5" as="geometry" />
        </mxCell>
        <mxCell id="jt9bvCTmd64Q98_ZrKiH-16" value="&lt;b&gt;forward_durations&lt;br&gt;&lt;/b&gt;" style="text;html=1;strokeColor=none;fillColor=none;align=center;verticalAlign=middle;whiteSpace=wrap;rounded=0;fontSize=14;" parent="1" vertex="1">
          <mxGeometry x="202.5" y="303.75" width="116.5" height="32.5" as="geometry" />
        </mxCell>
        <mxCell id="jt9bvCTmd64Q98_ZrKiH-21" value="&lt;b&gt;reverse_durations&lt;br&gt;&lt;/b&gt;" style="text;html=1;strokeColor=none;fillColor=none;align=center;verticalAlign=middle;whiteSpace=wrap;rounded=0;fontSize=14;" parent="1" vertex="1">
          <mxGeometry x="202.5" y="343.75" width="116.5" height="32.5" as="geometry" />
        </mxCell>
        <mxCell id="jt9bvCTmd64Q98_ZrKiH-26" value="&lt;b&gt;forward_data_sources&lt;br&gt;&lt;/b&gt;" style="text;html=1;strokeColor=none;fillColor=none;align=center;verticalAlign=middle;whiteSpace=wrap;rounded=0;fontSize=14;" parent="1" vertex="1">
          <mxGeometry x="187" y="387.5" width="116.5" height="32.5" as="geometry" />
        </mxCell>
        <mxCell id="jt9bvCTmd64Q98_ZrKiH-35" value="&lt;b&gt;reverse_data_sources&lt;br&gt;&lt;/b&gt;" style="text;html=1;strokeColor=none;fillColor=none;align=center;verticalAlign=middle;whiteSpace=wrap;rounded=0;fontSize=14;" parent="1" vertex="1">
          <mxGeometry x="187" y="423.75" width="116.5" height="32.5" as="geometry" />
        </mxCell>
        <mxCell id="jt9bvCTmd64Q98_ZrKiH-36" value="&lt;font style=&quot;font-size: 14px&quot;&gt;&lt;b&gt;Via_1&lt;/b&gt;&lt;/font&gt;" style="rounded=0;whiteSpace=wrap;html=1;" parent="1" vertex="1">
          <mxGeometry x="472.5" y="180" width="148.75" height="40" as="geometry" />
        </mxCell>
        <mxCell id="jt9bvCTmd64Q98_ZrKiH-37" value="&lt;font style=&quot;font-size: 14px&quot;&gt;&lt;b&gt;Via_2&lt;/b&gt;&lt;/font&gt;" style="rounded=0;whiteSpace=wrap;html=1;" parent="1" vertex="1">
          <mxGeometry x="621.25" y="180" width="148.75" height="40" as="geometry" />
        </mxCell>
        <mxCell id="jt9bvCTmd64Q98_ZrKiH-38" value="&lt;font style=&quot;font-size: 14px&quot;&gt;&lt;b&gt;Target&lt;/b&gt;&lt;/font&gt;" style="rounded=0;whiteSpace=wrap;html=1;" parent="1" vertex="1">
          <mxGeometry x="770" y="180" width="148.75" height="40" as="geometry" />
        </mxCell>
        <mxCell id="jt9bvCTmd64Q98_ZrKiH-39" value="&lt;font style=&quot;font-size: 14px&quot;&gt;&lt;b&gt;&lt;i&gt;INVALID_WEIGHT&lt;/i&gt;&lt;/b&gt;&lt;/font&gt;" style="rounded=0;whiteSpace=wrap;html=1;" parent="1" vertex="1">
          <mxGeometry x="323.75" y="220" width="148.75" height="40" as="geometry" />
        </mxCell>
        <mxCell id="jt9bvCTmd64Q98_ZrKiH-40" value="&lt;font style=&quot;font-size: 14px&quot;&gt;&lt;b&gt;weight&lt;br&gt;&lt;i&gt;(Source -&amp;gt; Via_1)&lt;/i&gt;&lt;/b&gt;&lt;/font&gt;" style="rounded=0;whiteSpace=wrap;html=1;" parent="1" vertex="1">
          <mxGeometry x="472.5" y="220" width="148.75" height="40" as="geometry" />
        </mxCell>
        <mxCell id="jt9bvCTmd64Q98_ZrKiH-41" value="&lt;font style=&quot;font-size: 14px&quot;&gt;&lt;b&gt;weight&lt;br&gt;&lt;i&gt;(&lt;/i&gt;&lt;/b&gt;&lt;b&gt;&lt;i&gt;Via_1&amp;nbsp;&lt;/i&gt;&lt;/b&gt;&lt;b&gt;&lt;i&gt;-&amp;gt; Via_2)&lt;/i&gt;&lt;/b&gt;&lt;/font&gt;" style="rounded=0;whiteSpace=wrap;html=1;" parent="1" vertex="1">
          <mxGeometry x="621.25" y="220" width="148.75" height="40" as="geometry" />
        </mxCell>
        <mxCell id="jt9bvCTmd64Q98_ZrKiH-42" value="&lt;font style=&quot;font-size: 14px&quot;&gt;&lt;b&gt;weight&lt;br&gt;&lt;i&gt;(&lt;/i&gt;&lt;/b&gt;&lt;b&gt;&lt;i&gt;Via_2&amp;nbsp;&lt;/i&gt;&lt;/b&gt;&lt;b&gt;&lt;i&gt;-&amp;gt; Target)&lt;/i&gt;&lt;/b&gt;&lt;/font&gt;" style="rounded=0;whiteSpace=wrap;html=1;" parent="1" vertex="1">
          <mxGeometry x="770" y="220" width="148.75" height="40" as="geometry" />
        </mxCell>
        <mxCell id="jt9bvCTmd64Q98_ZrKiH-43" value="&lt;b style=&quot;font-size: 14px&quot;&gt;weight&lt;br&gt;&lt;i&gt;(Source &amp;lt;- Via_1)&lt;/i&gt;&lt;/b&gt;" style="rounded=0;whiteSpace=wrap;html=1;" parent="1" vertex="1">
          <mxGeometry x="323.75" y="260" width="148.75" height="40" as="geometry" />
        </mxCell>
        <mxCell id="jt9bvCTmd64Q98_ZrKiH-44" value="&lt;b style=&quot;font-size: 14px&quot;&gt;weight&lt;br&gt;&lt;i&gt;(&lt;/i&gt;&lt;/b&gt;&lt;b style=&quot;font-size: 14px&quot;&gt;&lt;i&gt;Via_1&amp;nbsp;&lt;/i&gt;&lt;/b&gt;&lt;b style=&quot;font-size: 14px&quot;&gt;&lt;i&gt;&amp;lt;- Via_2)&lt;/i&gt;&lt;/b&gt;" style="rounded=0;whiteSpace=wrap;html=1;" parent="1" vertex="1">
          <mxGeometry x="472.5" y="260" width="148.75" height="40" as="geometry" />
        </mxCell>
        <mxCell id="jt9bvCTmd64Q98_ZrKiH-45" value="&lt;b style=&quot;font-size: 14px&quot;&gt;weight&lt;br&gt;&lt;i&gt;(&lt;/i&gt;&lt;/b&gt;&lt;b style=&quot;font-size: 14px&quot;&gt;&lt;i&gt;Via_2&amp;nbsp;&lt;/i&gt;&lt;/b&gt;&lt;b style=&quot;font-size: 14px&quot;&gt;&lt;i&gt;&amp;lt;- Target)&lt;/i&gt;&lt;/b&gt;" style="rounded=0;whiteSpace=wrap;html=1;" parent="1" vertex="1">
          <mxGeometry x="621.25" y="260" width="148.75" height="40" as="geometry" />
        </mxCell>
        <mxCell id="jt9bvCTmd64Q98_ZrKiH-46" value="&lt;b style=&quot;font-size: 14px&quot;&gt;&lt;i&gt;INVALID_WEIGHT&lt;/i&gt;&lt;/b&gt;" style="rounded=0;whiteSpace=wrap;html=1;" parent="1" vertex="1">
          <mxGeometry x="770" y="260" width="148.75" height="40" as="geometry" />
        </mxCell>
        <mxCell id="jt9bvCTmd64Q98_ZrKiH-47" value="&lt;font style=&quot;font-size: 14px&quot;&gt;&lt;b&gt;&lt;i&gt;INVALID_DURATION&lt;/i&gt;&lt;/b&gt;&lt;/font&gt;" style="rounded=0;whiteSpace=wrap;html=1;" parent="1" vertex="1">
          <mxGeometry x="323.75" y="300" width="148.75" height="40" as="geometry" />
        </mxCell>
        <mxCell id="jt9bvCTmd64Q98_ZrKiH-48" value="&lt;font style=&quot;font-size: 14px&quot;&gt;&lt;b&gt;duration&lt;br&gt;&lt;i&gt;(Source -&amp;gt; Via_1)&lt;/i&gt;&lt;/b&gt;&lt;/font&gt;" style="rounded=0;whiteSpace=wrap;html=1;" parent="1" vertex="1">
          <mxGeometry x="472.5" y="300" width="148.75" height="40" as="geometry" />
        </mxCell>
        <mxCell id="jt9bvCTmd64Q98_ZrKiH-49" value="&lt;font style=&quot;font-size: 14px&quot;&gt;&lt;b&gt;duration&lt;/b&gt;&lt;b&gt;&lt;br&gt;&lt;i&gt;(&lt;/i&gt;&lt;/b&gt;&lt;b&gt;&lt;i&gt;Via_1&amp;nbsp;&lt;/i&gt;&lt;/b&gt;&lt;b&gt;&lt;i&gt;-&amp;gt; Via_2)&lt;/i&gt;&lt;/b&gt;&lt;/font&gt;" style="rounded=0;whiteSpace=wrap;html=1;" parent="1" vertex="1">
          <mxGeometry x="621.25" y="300" width="148.75" height="40" as="geometry" />
        </mxCell>
        <mxCell id="jt9bvCTmd64Q98_ZrKiH-50" value="&lt;font style=&quot;font-size: 14px&quot;&gt;&lt;b&gt;duration&lt;/b&gt;&lt;b&gt;&lt;br&gt;&lt;i&gt;(&lt;/i&gt;&lt;/b&gt;&lt;b&gt;&lt;i&gt;Via_2&amp;nbsp;&lt;/i&gt;&lt;/b&gt;&lt;b&gt;&lt;i&gt;-&amp;gt; Target)&lt;/i&gt;&lt;/b&gt;&lt;/font&gt;" style="rounded=0;whiteSpace=wrap;html=1;" parent="1" vertex="1">
          <mxGeometry x="770" y="300" width="148.75" height="40" as="geometry" />
        </mxCell>
        <mxCell id="jt9bvCTmd64Q98_ZrKiH-51" value="&lt;b style=&quot;font-size: 14px&quot;&gt;duration&lt;/b&gt;&lt;b style=&quot;font-size: 14px&quot;&gt;&lt;br&gt;&lt;i&gt;(Source &amp;lt;- Via_1)&lt;/i&gt;&lt;/b&gt;" style="rounded=0;whiteSpace=wrap;html=1;" parent="1" vertex="1">
          <mxGeometry x="323.75" y="340" width="148.75" height="40" as="geometry" />
        </mxCell>
        <mxCell id="jt9bvCTmd64Q98_ZrKiH-52" value="&lt;b style=&quot;font-size: 14px&quot;&gt;duration&lt;/b&gt;&lt;b style=&quot;font-size: 14px&quot;&gt;&lt;br&gt;&lt;i&gt;(&lt;/i&gt;&lt;/b&gt;&lt;b style=&quot;font-size: 14px&quot;&gt;&lt;i&gt;Via_1&amp;nbsp;&lt;/i&gt;&lt;/b&gt;&lt;b style=&quot;font-size: 14px&quot;&gt;&lt;i&gt;&amp;lt;- Via_2)&lt;/i&gt;&lt;/b&gt;" style="rounded=0;whiteSpace=wrap;html=1;" parent="1" vertex="1">
          <mxGeometry x="472.5" y="340" width="148.75" height="40" as="geometry" />
        </mxCell>
        <mxCell id="jt9bvCTmd64Q98_ZrKiH-53" value="&lt;b style=&quot;font-size: 14px&quot;&gt;duration&lt;/b&gt;&lt;b style=&quot;font-size: 14px&quot;&gt;&lt;br&gt;&lt;i&gt;(&lt;/i&gt;&lt;/b&gt;&lt;b style=&quot;font-size: 14px&quot;&gt;&lt;i&gt;Via_2&amp;nbsp;&lt;/i&gt;&lt;/b&gt;&lt;b style=&quot;font-size: 14px&quot;&gt;&lt;i&gt;&amp;lt;- Target)&lt;/i&gt;&lt;/b&gt;" style="rounded=0;whiteSpace=wrap;html=1;" parent="1" vertex="1">
          <mxGeometry x="621.25" y="340" width="148.75" height="40" as="geometry" />
        </mxCell>
        <mxCell id="jt9bvCTmd64Q98_ZrKiH-54" value="&lt;b style=&quot;font-size: 14px&quot;&gt;&lt;i&gt;INVALID_DURATION&lt;/i&gt;&lt;/b&gt;" style="rounded=0;whiteSpace=wrap;html=1;" parent="1" vertex="1">
          <mxGeometry x="770" y="340" width="148.75" height="40" as="geometry" />
        </mxCell>
        <mxCell id="jt9bvCTmd64Q98_ZrKiH-55" value="&lt;font style=&quot;font-size: 14px&quot;&gt;&lt;b&gt;0&lt;/b&gt;&lt;/font&gt;" style="rounded=0;whiteSpace=wrap;html=1;" parent="1" vertex="1">
          <mxGeometry x="323.75" y="380" width="148.75" height="40" as="geometry" />
        </mxCell>
        <mxCell id="jt9bvCTmd64Q98_ZrKiH-56" value="&lt;span style=&quot;font-size: 14px&quot;&gt;&lt;b&gt;0&lt;/b&gt;&lt;/span&gt;" style="rounded=0;whiteSpace=wrap;html=1;" parent="1" vertex="1">
          <mxGeometry x="472.5" y="380" width="148.75" height="40" as="geometry" />
        </mxCell>
        <mxCell id="jt9bvCTmd64Q98_ZrKiH-57" value="&lt;span style=&quot;font-size: 14px&quot;&gt;&lt;b&gt;0&lt;/b&gt;&lt;/span&gt;" style="rounded=0;whiteSpace=wrap;html=1;" parent="1" vertex="1">
          <mxGeometry x="621.25" y="380" width="148.75" height="40" as="geometry" />
        </mxCell>
        <mxCell id="jt9bvCTmd64Q98_ZrKiH-58" value="&lt;span style=&quot;font-size: 14px&quot;&gt;&lt;b&gt;0&lt;/b&gt;&lt;/span&gt;" style="rounded=0;whiteSpace=wrap;html=1;" parent="1" vertex="1">
          <mxGeometry x="770" y="380" width="148.75" height="40" as="geometry" />
        </mxCell>
        <mxCell id="jt9bvCTmd64Q98_ZrKiH-59" value="&lt;span style=&quot;font-size: 14px&quot;&gt;&lt;b&gt;0&lt;/b&gt;&lt;/span&gt;" style="rounded=0;whiteSpace=wrap;html=1;" parent="1" vertex="1">
          <mxGeometry x="323.75" y="420" width="148.75" height="40" as="geometry" />
        </mxCell>
        <mxCell id="jt9bvCTmd64Q98_ZrKiH-60" value="&lt;span style=&quot;font-size: 14px&quot;&gt;&lt;b&gt;0&lt;/b&gt;&lt;/span&gt;" style="rounded=0;whiteSpace=wrap;html=1;" parent="1" vertex="1">
          <mxGeometry x="472.5" y="420" width="148.75" height="40" as="geometry" />
        </mxCell>
        <mxCell id="jt9bvCTmd64Q98_ZrKiH-61" value="&lt;span style=&quot;font-size: 14px&quot;&gt;&lt;b&gt;0&lt;/b&gt;&lt;/span&gt;" style="rounded=0;whiteSpace=wrap;html=1;" parent="1" vertex="1">
          <mxGeometry x="621.25" y="420" width="148.75" height="40" as="geometry" />
        </mxCell>
        <mxCell id="jt9bvCTmd64Q98_ZrKiH-62" value="&lt;b style=&quot;font-size: 14px&quot;&gt;0&lt;/b&gt;" style="rounded=0;whiteSpace=wrap;html=1;" parent="1" vertex="1">
          <mxGeometry x="770" y="420" width="148.75" height="40" as="geometry" />
        </mxCell>
        <mxCell id="jt9bvCTmd64Q98_ZrKiH-63" value="&lt;span style=&quot;font-size: 14px&quot;&gt;0 &lt;span style=&quot;font-weight: normal&quot;&gt;means &lt;/span&gt;LUA_SOURCE&lt;/span&gt;&lt;span style=&quot;font-size: 14px ; font-weight: 400&quot;&gt;&lt;br&gt;&lt;/span&gt;" style="text;html=1;strokeColor=#d6b656;fillColor=#fff2cc;align=left;verticalAlign=middle;whiteSpace=wrap;rounded=0;fontSize=16;fontStyle=1" parent="1" vertex="1">
          <mxGeometry x="7" y="394" width="160" height="60" as="geometry" />
        </mxCell>
        <mxCell id="jt9bvCTmd64Q98_ZrKiH-64" value="" style="endArrow=classic;html=1;entryX=0;entryY=0;entryDx=0;entryDy=0;" parent="1" target="BeEXMxbR4Cep0VXV6dGn-11" edge="1">
          <mxGeometry width="50" height="50" relative="1" as="geometry">
            <mxPoint x="324" y="130" as="sourcePoint" />
            <mxPoint x="237" y="168" as="targetPoint" />
          </mxGeometry>
        </mxCell>
        <mxCell id="jt9bvCTmd64Q98_ZrKiH-65" value="&lt;b&gt;index 0&lt;br&gt;&lt;/b&gt;" style="text;html=1;strokeColor=none;fillColor=none;align=center;verticalAlign=middle;whiteSpace=wrap;rounded=0;fontSize=14;" parent="1" vertex="1">
          <mxGeometry x="287" y="100" width="80" height="32.5" as="geometry" />
        </mxCell>
        <mxCell id="jt9bvCTmd64Q98_ZrKiH-66" value="" style="endArrow=classic;html=1;entryX=0;entryY=0;entryDx=0;entryDy=0;" parent="1" edge="1">
          <mxGeometry width="50" height="50" relative="1" as="geometry">
            <mxPoint x="919" y="130" as="sourcePoint" />
            <mxPoint x="918.75" y="180" as="targetPoint" />
          </mxGeometry>
        </mxCell>
        <mxCell id="jt9bvCTmd64Q98_ZrKiH-67" value="&lt;b&gt;index 1&lt;br&gt;&lt;/b&gt;" style="text;html=1;strokeColor=none;fillColor=none;align=center;verticalAlign=middle;whiteSpace=wrap;rounded=0;fontSize=14;" parent="1" vertex="1">
          <mxGeometry x="882" y="100" width="80" height="32.5" as="geometry" />
        </mxCell>
        <mxCell id="jt9bvCTmd64Q98_ZrKiH-68" value="&lt;b&gt;&lt;font style=&quot;font-size: 20px&quot;&gt;...&lt;/font&gt;&lt;/b&gt;" style="rounded=0;whiteSpace=wrap;html=1;shadow=1;dashed=1;" parent="1" vertex="1">
          <mxGeometry x="918.75" y="180" width="208.25" height="280" as="geometry" />
        </mxCell>
        <mxCell id="jt9bvCTmd64Q98_ZrKiH-70" value="" style="shape=curlyBracket;whiteSpace=wrap;html=1;rounded=1;shadow=1;rotation=-90;" parent="1" vertex="1">
          <mxGeometry x="611" y="182" width="20" height="590" as="geometry" />
        </mxCell>
        <mxCell id="jt9bvCTmd64Q98_ZrKiH-71" value="&lt;b&gt;compressed node based edge&lt;br&gt;&lt;/b&gt;" style="text;html=1;strokeColor=none;fillColor=none;align=center;verticalAlign=middle;whiteSpace=wrap;rounded=0;fontSize=14;" parent="1" vertex="1">
          <mxGeometry x="508.87" y="487" width="224.25" height="32.5" as="geometry" />
        </mxCell>
        <mxCell id="1QSbTVUivqwkHQ9_Yt27-1" value="" style="endArrow=classic;html=1;entryX=0;entryY=0;entryDx=0;entryDy=0;" edge="1" parent="1">
          <mxGeometry width="50" height="50" relative="1" as="geometry">
            <mxPoint x="1126" y="132" as="sourcePoint" />
            <mxPoint x="1125.75" y="182" as="targetPoint" />
          </mxGeometry>
        </mxCell>
        <mxCell id="1QSbTVUivqwkHQ9_Yt27-2" value="&lt;i&gt;&lt;b&gt;Last index sentinel&lt;/b&gt;&lt;br&gt;&lt;b&gt;(nodes count)&lt;/b&gt;&lt;/i&gt;" style="text;html=1;strokeColor=none;fillColor=none;align=center;verticalAlign=middle;whiteSpace=wrap;rounded=0;fontSize=14;" vertex="1" parent="1">
          <mxGeometry x="1070" y="90" width="99" height="32.5" as="geometry" />
        </mxCell>
      </root>
    </mxGraphModel>
  </diagram>
</mxfile>
